<svg id="Capa_1" enable-background="new 0 0 512 512" height="512" viewBox="0 0 512 512" width="512" xmlns="http://www.w3.org/2000/svg"><g><path d="m427.623 512h-62.061l-13.049-10h-190.513l-15.562 10h-62.061v-115.223c0-33.137 26.863-60 60-60h37.926l18.101 10 18.101-10h74.99l18.101 10 18.101-10h37.926c33.137 0 60 26.863 60 60z" fill="#eaf6ff"/><path d="m144.38 336.78h30c-33.14 0-60 26.86-60 60v115.22h-30v-115.22c0-33.14 26.86-60 60-60z" fill="#d8ecfe"/><g fill="#ffcebf"><path d="m293.495 336.737v-60.912h-74.99v60.912l-.052.035c0 20.739 16.808 37.547 37.547 37.547s37.547-16.808 37.547-37.547z"/><path d="m128.285 195.146h21.202l10-6.254v-38.225l-10-7.238h-21.202c-8.284 0-15 6.716-15 15v21.717c0 8.284 6.715 15 15 15z"/><path d="m383.715 195.146h-21.202l-10-7.01v-36.469l10-8.238h21.202c8.284 0 15 6.716 15 15v21.717c0 8.284-6.715 15-15 15z"/></g><path d="m259.537 295.403h-7.073c-56.872 0-102.977-46.104-102.977-102.977v-102.857c0-29.134 23.618-52.752 52.752-52.752h107.523c29.134 0 52.752 23.618 52.752 52.752v102.857c-.001 56.873-46.105 102.977-102.977 102.977z" fill="#ffeee6"/><path d="m271 294.76c-3.76.43-7.59.64-11.46.64h-7.08c-56.87 0-102.97-46.1-102.97-102.97v-102.86c0-29.14 23.61-52.75 52.75-52.75h30c-29.14 0-52.75 23.61-52.75 52.75v102.86c0 53 40.03 96.64 91.51 102.33z" fill="#ffdfcf"/><path d="m146.438 512v-58.82c0-1.693.614-3.329 1.727-4.604l34.397-39.396h146.877l34.397 39.396c1.113 1.275 1.727 2.911 1.727 4.604v58.82z" fill="#dc8758"/><g><path d="m256.227 254.256c-14.74 0-28.099-6.801-35.787-18.235-2.39-3.556-1.446-8.376 2.11-10.766s8.376-1.445 10.766 2.109c4.831 7.185 13.478 11.418 23.12 11.377 9.313-.061 17.609-4.282 22.192-11.293 2.344-3.586 7.152-4.593 10.738-2.248s4.592 7.152 2.248 10.737c-7.437 11.377-20.551 18.225-35.078 18.318-.102.001-.206.001-.309.001z" fill="#fd8087"/></g><g><g><path d="m206.512 201.36c-4.284 0-7.758-3.473-7.758-7.758v-16.589c0-4.285 3.473-7.758 7.758-7.758 4.284 0 7.758 3.473 7.758 7.758v16.589c-.001 4.285-3.474 7.758-7.758 7.758z" fill="#7a6d79"/></g><g><path d="m305.488 201.36c-4.284 0-7.758-3.473-7.758-7.758v-16.589c0-4.285 3.473-7.758 7.758-7.758 4.284 0 7.758 3.473 7.758 7.758v16.589c0 4.285-3.473 7.758-7.758 7.758z" fill="#7a6d79"/></g></g><path d="m189.303 440.211h22.202c3.866 0 7-3.134 7-7v-96.434h-36.202v96.434c0 3.866 3.134 7 7 7z" fill="#fece85"/><path d="m300.495 440.211h22.202c3.866 0 7-3.134 7-7v-96.434h-36.202v96.434c0 3.866 3.134 7 7 7z" fill="#fece85"/><path d="m288.292 0h-64.332c-51.13 0-92.57 41.45-92.57 92.58v50.85h61.15c51.071 0 92.482-41.355 92.578-92.404l.004.081c0 50.988 41.334 92.322 92.322 92.322h3.171v-51.107c-.001-50.988-41.335-92.322-92.323-92.322z" fill="#7a6d79"/><path d="m278.86 0c-52.89 0-95.76 42.87-95.76 95.76v47.67h-51.71v-50.85c0-51.13 41.44-92.58 92.57-92.58z" fill="#685e68"/></g></svg>